<svg xmlns="http://www.w3.org/2000/svg" viewBox="0 0 238.212 240.851" id="repair"><defs><linearGradient id="a" x1="-223.827" x2="-143.505" y1="-177.106" y2="-177.106" gradientTransform="matrix(1.2603 .457 -.837 .8433 190.394 345.406)" gradientUnits="userSpaceOnUse"><stop offset="0" stop-color="#fff"></stop><stop offset="1"></stop></linearGradient><linearGradient id="b" x1="574.252" x2="583.659" y1="741.13" y2="764.96" gradientTransform="matrix(-.622 -.6283 .7105 -.7035 38.796 1126.832)" gradientUnits="userSpaceOnUse"><stop offset="0" stop-color="#090909"></stop><stop offset="1" stop-color="#fff"></stop></linearGradient><linearGradient id="d" x1="764.893" x2="764.893" y1="796.205" y2="735.277" gradientTransform="matrix(-.6645 -.6712 .7105 -.7035 82.24 1170.865)" gradientUnits="userSpaceOnUse"><stop offset=".073"></stop><stop offset=".08" stop-color="#191919"></stop><stop offset=".094" stop-color="#4a4a4a"></stop><stop offset=".107" stop-color="#6d6d6d"></stop><stop offset=".117" stop-color="#838383"></stop><stop offset=".124" stop-color="#8b8b8b"></stop><stop offset=".149" stop-color="#a9a9a9"></stop><stop offset=".179" stop-color="#c4c4c4"></stop><stop offset=".213" stop-color="#dadada"></stop><stop offset=".252" stop-color="#ebebeb"></stop><stop offset=".302" stop-color="#f6f6f6"></stop><stop offset=".371" stop-color="#fdfdfd"></stop><stop offset=".562" stop-color="#fff"></stop><stop offset=".562" stop-color="#f6f6f6"></stop><stop offset=".565" stop-color="#c8c8c8"></stop><stop offset=".569" stop-color="#9d9d9d"></stop><stop offset=".572" stop-color="#777"></stop><stop offset=".576" stop-color="#575757"></stop><stop offset=".58" stop-color="#3b3b3b"></stop><stop offset=".585" stop-color="#252525"></stop><stop offset=".591" stop-color="#141414"></stop><stop offset=".598" stop-color="#090909"></stop><stop offset=".608" stop-color="#020202"></stop><stop offset=".635"></stop></linearGradient><linearGradient id="e" x1="867.775" x2="881.964" y1="753.95" y2="761.913" gradientTransform="matrix(-.6645 -.6712 .7105 -.7035 82.24 1170.865)" gradientUnits="userSpaceOnUse"><stop offset="0" stop-color="#fff"></stop><stop offset=".68" stop-color="#0c0c0c"></stop></linearGradient><linearGradient id="g" x1="132.756" x2="-51.72" y1="-524.273" y2="-368.09" gradientTransform="matrix(1.2081 -.0722 -.3345 .9057 -88.841 533.213)" gradientUnits="userSpaceOnUse"><stop offset="0" stop-color="#d4d8dd"></stop><stop offset=".489" stop-color="#97999c"></stop><stop offset="1" stop-color="#b9bbbf"></stop></linearGradient><linearGradient id="h" x1="-3.096" x2="79.088" y1="-590.865" y2="-324.744" gradientTransform="matrix(1.2081 -.0722 -.3345 .9057 -88.841 533.213)" gradientUnits="userSpaceOnUse"><stop offset="0" stop-color="#d9e8ff"></stop><stop offset=".348" stop-color="#ddd"></stop><stop offset=".635" stop-color="#caced2"></stop><stop offset="1" stop-color="#8da4bd"></stop></linearGradient><linearGradient id="i" x1="-.829" x2="80.554" y1="-588.146" y2="-324.622" gradientTransform="matrix(1.2081 -.0722 -.3345 .9057 -88.841 533.213)" gradientUnits="userSpaceOnUse"><stop offset=".006" stop-color="#fff"></stop><stop offset=".325" stop-color="#f8fbff"></stop><stop offset=".799" stop-color="#e4eeff"></stop><stop offset="1" stop-color="#d9e8ff"></stop></linearGradient><linearGradient id="k" x1="817.882" x2="817.882" y1="755.257" y2="771.424" gradientTransform="matrix(.00013 -.94449 .99986 .00007 -682.23 857.323)" gradientUnits="userSpaceOnUse"><stop offset=".006" stop-color="#9c9c9c"></stop><stop offset=".016" stop-color="#a5a5a5"></stop><stop offset=".06" stop-color="#c6c6c6"></stop><stop offset=".106" stop-color="#dfdfdf"></stop><stop offset=".152" stop-color="#f1f1f1"></stop><stop offset=".202" stop-color="#fcfcfc"></stop><stop offset=".258" stop-color="#fff"></stop><stop offset=".311" stop-color="#f5f5f5"></stop><stop offset=".4" stop-color="#dadada"></stop><stop offset=".516" stop-color="#adadad"></stop><stop offset=".652" stop-color="#707070"></stop><stop offset=".657" stop-color="#6e6e6e"></stop><stop offset=".79" stop-color="#a4a4a4"></stop><stop offset=".931" stop-color="#d9d9d9"></stop><stop offset="1" stop-color="#ededed"></stop></linearGradient><linearGradient id="l" x1="748.336" x2="748.336" y1="777.128" y2="749.227" gradientTransform="matrix(-.6645 -.6712 .7105 -.7035 82.24 1170.865)" gradientUnits="userSpaceOnUse"><stop offset=".011" stop-color="#07f"></stop><stop offset=".18" stop-color="#1163de"></stop><stop offset=".203" stop-color="#0f61db"></stop><stop offset=".406" stop-color="#0450c1"></stop><stop offset=".528" stop-color="#004ab8"></stop><stop offset=".696" stop-color="#034bc4"></stop><stop offset=".86" stop-color="#084cd4"></stop><stop offset=".994" stop-color="#0775f2"></stop></linearGradient><linearGradient id="m" x1="561.642" x2="616.117" y1="752.233" y2="812.76" gradientTransform="rotate(-87.002 68.788 698.432)" gradientUnits="userSpaceOnUse"><stop offset=".017" stop-color="#2d97fa"></stop><stop offset=".371" stop-color="#218ef4"></stop><stop offset="1" stop-color="#0277e6"></stop></linearGradient><linearGradient id="n" x1="649.75" x2="649.75" y1="768.355" y2="752.008" gradientTransform="matrix(-.622 -.6283 .7105 -.7035 38.796 1126.832)" gradientUnits="userSpaceOnUse"><stop offset=".011" stop-color="#07f"></stop><stop offset=".904" stop-color="#084cd4"></stop><stop offset=".994" stop-color="#0775f2"></stop></linearGradient><linearGradient id="o" x1="196.98" x2="190.98" y1="162.219" y2="168.219" gradientUnits="userSpaceOnUse"><stop offset=".275" stop-color="#63d0ff"></stop><stop offset=".472" stop-color="#0775f2"></stop><stop offset=".916" stop-color="#004ab8"></stop></linearGradient><linearGradient id="q" x1="576.174" x2="585.228" y1="759.131" y2="759.131" gradientTransform="matrix(-.622 -.6283 .7105 -.7035 38.796 1126.832)" gradientUnits="userSpaceOnUse"><stop offset="0" stop-color="#ebf8ff"></stop><stop offset=".102" stop-color="#dbf1fe"></stop><stop offset=".301" stop-color="#b3dffd"></stop><stop offset=".577" stop-color="#71c2fb"></stop><stop offset=".915" stop-color="#189af8"></stop><stop offset="1" stop-color="#0090f7"></stop></linearGradient><linearGradient id="r" x1="620.223" x2="664.383" y1="724.635" y2="724.635" gradientTransform="rotate(-87.002 68.788 698.432)" gradientUnits="userSpaceOnUse"><stop offset=".006" stop-color="#0775f2"></stop><stop offset=".635" stop-color="#004ab8"></stop><stop offset=".743" stop-color="#0253c4"></stop><stop offset=".938" stop-color="#066ae4"></stop><stop offset="1" stop-color="#0773ef"></stop></linearGradient><linearGradient id="s" x1="620.8" x2="677.415" y1="717.132" y2="717.132" gradientTransform="rotate(-87.002 68.788 698.432)" gradientUnits="userSpaceOnUse"><stop offset="0" stop-color="#1bcbf2"></stop><stop offset=".015" stop-color="#1ac5f0"></stop><stop offset=".123" stop-color="#129de3"></stop><stop offset=".235" stop-color="#0b7cd8"></stop><stop offset=".349" stop-color="#0663cf"></stop><stop offset=".467" stop-color="#0350c9"></stop><stop offset=".591" stop-color="#0146c5"></stop><stop offset=".73" stop-color="#0042c4"></stop><stop offset=".776" stop-color="#0049c7"></stop><stop offset=".844" stop-color="#005ece"></stop><stop offset=".927" stop-color="#007fdb"></stop><stop offset="1" stop-color="#00a3e8"></stop></linearGradient><linearGradient id="u" x1="765.454" x2="765.454" y1="792.534" y2="736.748" gradientTransform="matrix(-.6645 -.6712 .7105 -.7035 82.24 1170.865)" gradientUnits="userSpaceOnUse"><stop offset="0" stop-color="#ebf9ff"></stop><stop offset=".111" stop-color="#dbf3ff"></stop><stop offset=".326" stop-color="#b3e3fe"></stop><stop offset=".624" stop-color="#71cafc"></stop><stop offset=".99" stop-color="#18a7fa"></stop><stop offset="1" stop-color="#15a6fa"></stop></linearGradient><linearGradient id="w" x1="877.808" x2="919.982" y1="753.927" y2="777.597" gradientTransform="matrix(-.6645 -.6712 .7105 -.7035 82.24 1170.865)" gradientUnits="userSpaceOnUse"><stop offset="0" stop-color="#fff"></stop><stop offset="1" stop-color="#9c9c9c"></stop></linearGradient><linearGradient id="x" x1="713.339" x2="762.565" y1="635.553" y2="635.553" gradientTransform="matrix(.0192 -.9718 .9728 -.0361 -602.045 773.618)" gradientUnits="userSpaceOnUse"><stop offset="0" stop-color="#fff"></stop><stop offset=".238" stop-color="#fbfbfb"></stop><stop offset=".491" stop-color="#eee"></stop><stop offset=".75" stop-color="#d9d9d9"></stop><stop offset="1" stop-color="#bdbdbd"></stop></linearGradient><mask id="j" width="243.234" height="256.97" x="-14.46" y="-16.37" maskUnits="userSpaceOnUse"><path fill="url(#a)" d="M153.27514,133.70794c-62.1499,69.9404-133.14749,116.9658-158.628,105.0449-25.4521-11.93941,4.2696-78.2939,66.4029-148.2382,62.1411-69.9288,133.1489-116.962,158.604-105.03621C245.12664-2.58506,215.40984,63.77534,153.27514,133.70794Z"></path></mask><mask id="p" width="31.039" height="30.804" x="200.096" y="214.032" maskUnits="userSpaceOnUse"><path fill="url(#b)" d="M214.39034,221.55264c5.9971-5.9404,12.6016-8.9931,14.7676-6.8203l1.2929,1.3106c2.1582,2.166-.9619,8.7558-6.9677,14.6972l-6.6338,6.57229c-6.0039,5.94731-12.6153,8.99711-14.7744,6.82131l-1.2989-1.3008c-2.1533-2.1777.9737-8.7607,6.97761-14.6973Z" filter="url(#c)"></path></mask><mask id="t" width="58.259" height="57.996" x="90.579" y="91.465" maskUnits="userSpaceOnUse"><path fill="url(#d)" d="M108.85714,109.50584c-11.6792,11.5634-19.6167,22.5283-18.0903,24.9287l-.0484.04589,14.8399,14.98041,43.2802-42.8632-14.8398-14.9805-.03709.0391C131.57394,90.123,120.529,97.94334,108.85714,109.50584Z" filter="url(#c)"></path></mask><mask id="v" width="45.343" height="51.6" x="7.141" y="8.107" maskUnits="userSpaceOnUse"><polygon fill="url(#e)" points="38.361 43.265 47.872 52.865 40.968 59.707 31.446 50.106 38.361 43.265" filter="url(#f)"></polygon></mask><filter id="c" color-interpolation-filters="sRGB" filterUnits="userSpaceOnUse"><feColorMatrix values="-1 0 0 0 1 0 -1 0 0 1 0 0 -1 0 1 0 0 0 1 0"></feColorMatrix></filter><filter id="f" width="45.343" height="51.6" x="7.141" y="8.107" color-interpolation-filters="sRGB" filterUnits="userSpaceOnUse"><feColorMatrix result="invert" values="-1 0 0 0 1 0 -1 0 0 1 0 0 -1 0 1 0 0 0 1 0"></feColorMatrix><feFlood flood-color="#fff" result="bg"></feFlood><feBlend in="invert" in2="bg"></feBlend></filter></defs><g style="isolation:isolate"><g><g><path fill="url(#g)" d="M194.11784.00194l2.3623,12.72849L162.569,52.34854s-1.8965,6.3643,3.89161,8.1211c5.77539,1.752,12.04879-1.5605,12.04879-1.5605l35.9805-46.4238s18.0449,21.9043,1.083,47.9775c-16.9756,26.0518-49.0322,24.6318-49.0322,24.6318l-69.8823,89.7871s11.5141,19.7872-15.3101,45.1895c-18.3501,17.3789-50.8916,17.2461-50.8916,17.2461l-2.3789-12.7442,39.1274-33.3095s6.1265-7.876-.7534-11.6436c-6.8686-3.7685-15.3359,4.251-15.3359,4.251l-39.8296,42.3516s-2.02-4.5059-4.1192-10.8184c-2.7358-8.2295-6.7753-17.96,1.7217-30.2646,16.793-24.376,46.2134-26.9805,46.2134-26.9805l78.9443-83.2266s8.7764-29.6875,28.0977-53.3994C174.20674,6.71874,194.11784.00194,194.11784.00194Z"></path><path fill="url(#h)" d="M194.11784.00194l-33.9209,39.60149s-1.8935,6.38281,3.8926,8.12891c5.7676,1.74609,12.041-1.5615,12.041-1.5615l33.4424-40.8389s20.59471,16.2998,3.624,42.3877c-16.9707,26.0869-49.041,24.6524-49.041,24.6524l-69.8638,89.7773s11.4947,19.7705-15.3139,45.1787c-18.3628,17.3799-50.9004,17.2451-50.9004,17.2451l36.748-46.0351s6.127-7.9053-.7422-11.6465c-6.8823-3.7715-15.3452,4.2344-15.3452,4.2344l-41.5713,44.2783s-15.6806-21.207-.6543-42.9961c16.8028-24.3828,46.2154-26.998,46.2154-26.998l78.9424-83.211s-14.0411-15.4541,5.27729-39.1689C156.24194-.671,194.11784.00194,194.11784.00194Z"></path><path fill="url(#i)" d="M158.61394,48.04294a12.81275,12.81275,0,0,0,5.002.4287c-5.5401-1.8164-3.7354-8.0313-3.7354-8.0313L193.80534.82614s-2.22169-.0303-5.792.2344l-33.2832,38.87789S152.83954,46.30854,158.61394,48.04294ZM57.821,166.94724c-6.7115-2.8125-14.5528,4.5156-14.5528,4.5156l-38.6313,41.1191a30.50426,30.50426,0,0,0,2.2119,3.64749l41.582-44.25489S52.82194,167.88084,57.821,166.94724ZM209.26824,6.162l-2.0967,2.5879c4.9922,5.8682,13.20511,19.8594.54011,39.3076-16.95411,26.04889-49.02251,24.6377-49.02251,24.6377l-69.8696,89.78319s11.5127,19.76861-15.314,45.18651c-13.583,12.85549-34.9175,16.1172-45.0971,16.9551l-.6275.7871s32.5342.1348,50.8921-17.2441c26.8208-25.4102,15.2983-45.18261,15.2983-45.18261l69.8721-89.78619s32.0645,1.4258,49.03421-24.6552C229.86884,22.47264,209.26824,6.162,209.26824,6.162Z"></path><g mask="url(#j)"><path fill="#fff" d="M93.64964,118.80264c47.07659-43.0146,94.11179-75.0976,122.27579-85.122,1.6934-15.6338-9.9863-24.9004-9.9863-24.9004l-32.8086,40.0127s-6.1728,3.2402-11.8574,1.5146c-5.7012-1.6982-3.8437-7.9433-3.8437-7.9433L190.72434,3.581s-32.01569-2.9864-50.9824,20.247c-18.94829,23.2168-5.128,38.3399-5.128,38.3399l-83.0527,85.7607s-26.8648.6123-43.3545,24.499c-14.7632,21.3545-1.0435,42.1651-1.0435,42.1651l8.0503-8.5684C31.04074,182.05954,58.71014,150.73434,93.64964,118.80264Z"></path></g><rect width="16.15" height="108.138" x="73.036" y="30.824" fill="url(#k)" stroke="#737373" stroke-width=".49" transform="rotate(-44.72 81.111 84.893)"></rect><path fill="url(#l)" d="M110.50854,114.80754c5.4667-5.4023,13.5537-6.12111,18.0576-1.5713l17.1211,17.2901c4.498,4.542,3.6953,12.6152-1.7725,18.03509h0c-5.4736,5.41311-13.542,6.128-18.03809,1.58891L108.736,132.85343c-4.4922-4.54289-3.708-12.61719,1.7725-18.04589Z"></path><path fill="url(#m)" d="M144.22524,129.746c6.878-6.8193,16.4493-8.3018,21.3858-3.3203l69.60161,70.2939c4.93159,4.9746,3.71479,17.4463-3.15631,24.2539l-12.9219,13.3868c-6.873,6.8183-20.6992,8.6406-25.6289,3.65909l-69.6094-70.289c-4.9287-4.98539-3.3574-14.53909,3.5196-21.35159Z"></path><path fill="#fff8f5" d="M134.24094,148.287c6.2431-6.18461,15.5302-6.9111,20.7529-1.6445l57.63481,58.21089c5.22849,5.26861,4.40039,14.53521-1.84771,20.72951h0c-6.2402,6.1719-15.5254,6.9111-20.7402,1.6377l-57.625-58.2031c-5.2324-5.28611-4.4102-14.5596,1.8252-20.7305Z" style="mix-blend-mode:soft-light"></path><path fill="url(#n)" d="M137.859,146.54684c3.2071-3.1768,7.6368-3.89941,9.8965-1.6016l65.6074,66.2383c2.26571,2.29589,1.501,6.71289-1.707,9.8887h0c-3.208,3.1767-7.6318,3.9023-9.8955,1.6015l-65.6016-66.2441c-2.2656-2.2861-1.5009-6.7139,1.7002-9.8828Z"></path><path fill="url(#o)" d="M155.42744,128.83984c1.9551-1.9336,5.4014-1.6348,7.6895.6748l66.2753,66.9306c2.2813,2.3154,2.5625,5.751.5977,7.6953h0c-1.94729,1.9346-5.3945,1.6241-7.6758-.6855l-66.2764-66.918c-2.2929-2.3222-2.5634-5.7578-.6103-7.6972Z"></path><g mask="url(#p)"><path fill="url(#q)" d="M225.17844,217.36514a2.60651,2.60651,0,0,1,3.667.3868h0a2.63429,2.63429,0,0,1,.3574,3.6826l-11.96,11.8496c-.9287.916-11.86419,6.7314-14.122,2.7187l6.2597-4.3672a37.29258,37.29258,0,0,0,3.2403-2.9843Z"></path></g><path fill="url(#r)" d="M121.66374,123.74214c11.5928-11.4785,22.4532-19.291,24.2676-17.4551,1.82131,1.835-6.0879,12.6338-17.67969,24.1133-11.5957,11.4736-22.4687,19.29-24.29,17.4492C102.14664,146.01364,110.07394,135.21964,121.66374,123.74214Z"></path><path fill="url(#s)" d="M107.99874,109.95894c-11.3174,11.2197-19.1182,21.7549-17.772,23.9336l-.0434.04389,13.4248,13.54691,41.9707-41.5664-13.419-13.5449-.0371.04C129.95184,91.04294,119.34544,98.73234,107.99874,109.95894Z"></path><g mask="url(#t)"><path fill="url(#u)" d="M109.04264,111.26164c-10.6924,10.59079-18.0551,20.5401-16.7788,22.6123l-.0371.0391,12.6655,12.7783,39.6231-39.2441-12.6592-12.7823-.0439.0401C129.75554,93.413,119.75164,100.67864,109.04264,111.26164Z"></path></g><g mask="url(#v)"><polygon fill="url(#w)" stroke="#6e6e6e" stroke-linecap="round" stroke-linejoin="round" stroke-width=".49" points="7.386 23.778 32.448 52.433 50.074 51.385 50.672 34.093 22.954 8.352 7.386 23.778"></polygon><path fill="url(#x)" d="M32.78924,51.35643l5.3272,1.76851,11.3408,3.6016,3.0263-6.3643-2.6767-15.92481L23.00944,9.90524,8.153,23.91894ZM22.652,11.85834l24.5147,23.0508,2.0634,15.2998-16.2617.084L9.33514,23.74314Z"></path></g></g></g></g></svg>